<?xml version="1.0" standalone="no"?>
<!DOCTYPE svg PUBLIC "-//W3C//DTD SVG 20010904//EN"
 "http://www.w3.org/TR/2001/REC-SVG-20010904/DTD/svg10.dtd">
<svg version="1.0" xmlns="http://www.w3.org/2000/svg"
 width="700.000000pt" height="700.000000pt" viewBox="0 0 700.000000 700.000000"
 preserveAspectRatio="xMidYMid meet">
<metadata>
Created by potrace 1.14, written by Peter Selinger 2001-2017
</metadata>
<g transform="translate(0.000000,700.000000) scale(0.100000,-0.100000)"
fill="#000000" stroke="none">
<path d="M1020 3485 c0 -1742 3 -2485 11 -2485 5 0 7 5 3 12 -4 6 -3 8 3 5 6
-4 735 355 1619 797 1486 743 1609 803 1624 788 8 -10 45 -44 80 -77 36 -33
124 -115 195 -181 72 -67 146 -136 165 -154 19 -18 82 -76 140 -130 58 -54
119 -110 136 -126 17 -16 82 -76 144 -134 62 -58 125 -116 140 -130 35 -33
236 -220 275 -256 17 -16 87 -81 155 -144 68 -63 157 -146 198 -185 41 -38 79
-71 85 -73 9 -2 12 607 12 2478 0 1364 -3 2479 -7 2478 -5 -2 -1116 -1110
-2470 -2463 -1354 -1353 -2449 -2445 -2433 -2426 17 19 37 42 45 51 8 9 39 43
69 76 29 32 65 73 80 89 15 17 69 77 121 135 51 58 96 107 99 110 3 3 42 46
86 95 44 50 85 95 90 101 20 22 160 177 175 194 27 31 155 173 180 200 26 28
142 158 173 194 10 12 33 37 51 56 17 19 78 87 135 150 57 63 120 133 140 155
31 35 122 136 241 269 19 21 40 44 46 50 5 6 52 57 103 114 84 95 120 135 176
196 11 12 52 57 90 101 39 43 75 83 80 89 6 6 50 55 98 108 l87 97 -23 23
c-22 21 -198 185 -277 258 -19 17 -87 80 -150 139 -156 145 -238 222 -280 261
-19 18 -62 57 -95 89 -64 59 -279 259 -331 307 -17 16 -82 76 -144 134 -62 58
-122 113 -134 123 -11 10 -52 49 -91 85 -38 37 -131 123 -205 192 -74 68 -147
136 -161 150 -14 14 -52 49 -85 79 -88 81 -277 256 -405 377 -26 24 -50 44
-53 44 -3 0 -6 -1118 -6 -2485z"/>
</g>
</svg>
