<svg id="_40_Events_Calendar" data-name="40 Events Calendar" xmlns="http://www.w3.org/2000/svg" width="46.396" height="40.747" viewBox="0 0 46.396 40.747">
  <rect id="Rectangle_2054" data-name="Rectangle 2054" width="6.269" height="7.523" transform="translate(5.642 0)" fill="#ffdc1c"/>
  <rect id="Rectangle_2055" data-name="Rectangle 2055" width="5.642" height="7.523" transform="translate(35.105 0)" fill="#ffab00"/>
  <path id="Path_3663" data-name="Path 3663" d="M33.8,34.45,28,33.483,33.8,33Z" transform="translate(-22.2 -27.554)" fill="#1fa49c"/>
  <path id="Path_3664" data-name="Path 3664" d="M93.8,34.45,88,33.483,93.8,33Z" transform="translate(-53.203 -27.554)" fill="#1fa49c"/>
  <rect id="Rectangle_2056" data-name="Rectangle 2056" width="46.389" height="35.105" transform="translate(0 5.642)" fill="#05f"/>
  <path id="Path_3665" data-name="Path 3665" d="M16,52l46.4,2.175V52Z" transform="translate(-16 -37.372)" fill="#001acb"/>
  <rect id="Rectangle_2057" data-name="Rectangle 2057" width="46.389" height="8.776" transform="translate(0 5.642)" fill="#738dff"/>
  <rect id="Rectangle_2058" data-name="Rectangle 2058" width="5.642" height="5.642" transform="translate(6.896 20.687)" fill="#001acb"/>
  <rect id="Rectangle_2059" data-name="Rectangle 2059" width="5.642" height="5.642" transform="translate(26.329 20.687)" fill="#001acb"/>
  <rect id="Rectangle_2060" data-name="Rectangle 2060" width="5.642" height="5.642" transform="translate(35.732 20.687)" fill="#001acb"/>
  <rect id="Rectangle_2061" data-name="Rectangle 2061" width="5.642" height="5.642" transform="translate(16.299 20.687)" fill="#001acb"/>
  <rect id="Rectangle_2062" data-name="Rectangle 2062" width="5.642" height="5.642" transform="translate(6.896 30.09)" fill="#001acb"/>
  <rect id="Rectangle_2063" data-name="Rectangle 2063" width="5.642" height="5.642" transform="translate(26.329 30.09)" fill="#001acb"/>
  <rect id="Rectangle_2064" data-name="Rectangle 2064" width="5.642" height="5.642" transform="translate(35.732 30.09)" fill="#001acb"/>
  <rect id="Rectangle_2065" data-name="Rectangle 2065" width="5.642" height="5.642" transform="translate(16.299 30.09)" fill="#001acb"/>
  <rect id="Rectangle_2066" data-name="Rectangle 2066" width="6.269" height="5.642" transform="translate(5.642 20.06)" fill="#ffdc1c"/>
  <rect id="Rectangle_2067" data-name="Rectangle 2067" width="5.642" height="5.642" transform="translate(25.075 20.06)" fill="#ffdc1c"/>
  <rect id="Rectangle_2068" data-name="Rectangle 2068" width="5.642" height="5.642" transform="translate(35.105 20.06)" fill="#ffdc1c"/>
  <rect id="Rectangle_2069" data-name="Rectangle 2069" width="5.642" height="5.642" transform="translate(15.672 20.06)" fill="#ffdc1c"/>
  <rect id="Rectangle_2070" data-name="Rectangle 2070" width="6.269" height="5.642" transform="translate(5.642 29.463)" fill="#ffdc1c"/>
  <rect id="Rectangle_2071" data-name="Rectangle 2071" width="5.642" height="5.642" transform="translate(25.075 29.463)" fill="#ffdc1c"/>
  <rect id="Rectangle_2072" data-name="Rectangle 2072" width="5.642" height="5.642" transform="translate(35.105 29.463)" fill="#ffdc1c"/>
  <rect id="Rectangle_2073" data-name="Rectangle 2073" width="5.642" height="5.642" transform="translate(15.672 29.463)" fill="#ffdc1c"/>
</svg>
