<svg id="text-lines" xmlns="http://www.w3.org/2000/svg" width="43.532" height="40.726" viewBox="0 0 43.532 40.726">
  <path id="Path_3675" data-name="Path 3675" d="M43.5,53.133V88.9H0V53.133L21.748,51.2Z" transform="translate(0.035 -48.171)" fill="#05f"/>
  <path id="Path_3676" data-name="Path 3676" d="M428.711,17.067V21.9h-4.833l-2.9-2.417,2.9-2.416Z" transform="translate(-385.179 -16.938)" fill="#ffdc1c"/>
  <rect id="Rectangle_2074" data-name="Rectangle 2074" width="38.866" height="5.015" transform="translate(0 0)" fill="#ffab00"/>
  <path id="Path_3677" data-name="Path 3677" d="M92.356,243.228h-31.9a.725.725,0,1,1,0-1.45h31.9a.725.725,0,1,1,0,1.45Z" transform="translate(-54.624 -222.559)" fill="#001acb"/>
  <g id="Group_4516" data-name="Group 4516" transform="translate(5.11 23.086)">
    <path id="Path_3678" data-name="Path 3678" d="M74.474,288.74H60.459a.725.725,0,1,1,0-1.45H74.474a.725.725,0,1,1,0,1.45Z" transform="translate(-59.734 -287.29)" fill="#a0aeff"/>
    <path id="Path_3679" data-name="Path 3679" d="M74.474,334.251H60.459a.725.725,0,0,1,0-1.45H74.474a.725.725,0,1,1,0,1.45Z" transform="translate(-59.734 -328.935)" fill="#a0aeff"/>
    <path id="Path_3680" data-name="Path 3680" d="M74.474,379.762H60.459a.725.725,0,0,1,0-1.45H74.474a.725.725,0,1,1,0,1.45Z" transform="translate(-59.734 -370.579)" fill="#a0aeff"/>
  </g>
  <rect id="Rectangle_2075" data-name="Rectangle 2075" width="13.791" height="11.284" transform="translate(23.821 23.821)" fill="#ffdc1c"/>
  <g id="Group_4517" data-name="Group 4517" transform="translate(5.11 9.553)">
    <path id="Path_3681" data-name="Path 3681" d="M74.474,425.273H60.459a.725.725,0,0,1,0-1.45H74.474a.725.725,0,1,1,0,1.45Z" transform="translate(-59.734 -398.692)" fill="#ffdc1c"/>
    <path id="Path_3682" data-name="Path 3682" d="M365.167,135.249a2.64,2.64,0,0,1-2.656-1.491.725.725,0,0,1,1.363-.493c.116.32.635.535,1.292.535.492,0,1.323-.153,1.323-.725,0-.392-.179-.528-1.441-.734a5.354,5.354,0,0,1-1.629-.443,1.84,1.84,0,0,1-1.027-1.721c0-1.281,1.14-2.175,2.773-2.175a2.641,2.641,0,0,1,2.656,1.49.725.725,0,1,1-1.363.494c-.116-.32-.635-.534-1.292-.534-.492,0-1.323.153-1.323.725,0,.392.179.527,1.44.733a5.358,5.358,0,0,1,1.629.444,1.841,1.841,0,0,1,1.028,1.722C367.941,134.355,366.8,135.249,365.167,135.249Z" transform="translate(-336.682 -128)" fill="#ffdc1c"/>
    <path id="Path_3683" data-name="Path 3683" d="M264.2,135.248a.725.725,0,0,1-.646-.4l-.823-1.624-.823,1.624a.725.725,0,0,1-1.349-.15l-1.469-5.8a.725.725,0,0,1,1.405-.356l.994,3.925.6-1.174a.725.725,0,0,1,1.293,0l.6,1.174.994-3.925a.725.725,0,0,1,1.405.356l-1.47,5.8a.725.725,0,0,1-.623.542A.712.712,0,0,1,264.2,135.248Z" transform="translate(-242.134 -127.999)" fill="#ffdc1c"/>
    <path id="Path_3684" data-name="Path 3684" d="M181.54,135.249h-4.1a.725.725,0,0,1-.725-.725v-5.8a.725.725,0,0,1,.725-.725h4.1a.725.725,0,1,1,0,1.45h-3.372v4.35h3.372a.725.725,0,0,1,0,1.45Z" transform="translate(-166.781 -128)" fill="#ffdc1c"/>
    <path id="Path_3685" data-name="Path 3685" d="M180.175,163.584h-2.731a.725.725,0,1,1,0-1.45h2.731a.725.725,0,1,1,0,1.45Z" transform="translate(-166.781 -159.234)" fill="#ffdc1c"/>
    <path id="Path_3686" data-name="Path 3686" d="M89.992,135.247a.725.725,0,0,1-.552-.254l-3.674-4.3v3.834a.725.725,0,1,1-1.45,0v-5.8a.725.725,0,0,1,1.276-.471l3.674,4.3v-3.833a.725.725,0,0,1,1.45,0v5.8a.725.725,0,0,1-.725.725Z" transform="translate(-82.229 -127.998)" fill="#ffdc1c"/>
  </g>
</svg>
